<svg id="Layer_1" data-name="Layer 1" xmlns="http://www.w3.org/2000/svg" viewBox="0 0 128.49 105.23"><title>portfolio-logo-set</title><g id="gJjI1E.tif"><path d="M85.65,1h5.46c1,.22,2.09.41,3.13.65A26.14,26.14,0,0,1,106.8,8.49a1.75,1.75,0,0,0,1.33.53c3.09-.88,6.19-1.74,9.2-2.85,2.24-.83,4.36-2,6.69-3.12a27.23,27.23,0,0,1-10.71,14,49.36,49.36,0,0,0,14.18-3.82c-.32.51-.46.75-.62,1a49.65,49.65,0,0,1-11.25,11.62,2.28,2.28,0,0,0-1,2.17,69.41,69.41,0,0,1-1.86,18.31C109,62.22,101.23,75.79,88.94,86.61a69.27,69.27,0,0,1-37.62,16.87c-2,.27-4.08.5-6.13.75H36.76c-2.42-.26-4.85-.43-7.25-.81a74.71,74.71,0,0,1-24.6-8.33C3.59,94.37,2.3,93.56,1,92.79a59.76,59.76,0,0,0,20-2,51.44,51.44,0,0,0,18-9.11,25.91,25.91,0,0,1-15.06-5.24,25.4,25.4,0,0,1-9.09-12.73c2,.1,3.81.31,5.61.24s3.67-.4,5.5-.62a28.2,28.2,0,0,1-14.65-9.55A25.5,25.5,0,0,1,5.67,37.29a26.79,26.79,0,0,0,11.59,3.18C11.59,36.33,8,31.16,6.52,24.61A25.75,25.75,0,0,1,9.41,5.77a74.38,74.38,0,0,0,24,19.32,72.62,72.62,0,0,0,29.37,7.85,63.74,63.74,0,0,1-.19-7.88c1-10.77,6.69-18.23,16.68-22.3A53.59,53.59,0,0,1,85.65,1Z" style="fill:none;stroke:#000;stroke-linejoin:round;stroke-width:2px"/></g></svg>