<svg id="Layer_1" data-name="Layer 1" xmlns="http://www.w3.org/2000/svg" viewBox="0 0 141.76 140.72"><title>portfolio-logo-set</title><g id="gi95s1.tif"><path d="M.63,70.49c0-6.5-.4-13,.19-19.47.25-2.75,1.91-6.3,4.09-7.8C25.2,29.33,45.77,15.85,66.19,2.15c3.37-2.26,6.23-2.16,9.57.08q30.41,20.42,61,40.62c3.26,2.16,4.55,4.93,4.51,8.79q-.19,18.74,0,37.48a9.78,9.78,0,0,1-4.86,9.1q-30.16,19.9-60.12,40.09c-3.89,2.63-7,2.51-10.83-.07Q35.5,118,5.32,98.14A9.65,9.65,0,0,1,.58,89C.77,82.82.63,76.65.63,70.49ZM17.3,49c7,4.65,13.39,9,19.9,13.09a3.93,3.93,0,0,0,3.46-.19Q52.11,54.48,63.33,46.7a4.58,4.58,0,0,0,1.77-3.17c.15-8.4.08-16.81.08-26.4Zm107.23,0L76.65,17.16c0,9.57-.13,17.85.13,26.12,0,1.42,1.47,3.2,2.76,4.1,6.91,4.84,13.92,9.54,21,14a5.36,5.36,0,0,0,4.67.29C111.57,57.82,117.67,53.57,124.54,49ZM17.32,91.86l47.86,31.86c0-9.6.07-18-.08-26.41a4.58,4.58,0,0,0-1.79-3.16Q52.09,86.37,40.65,78.93a3.94,3.94,0,0,0-3.47-.19C30.68,82.87,24.31,87.2,17.32,91.86Zm107.2,0c-6.86-4.58-13-8.83-19.28-12.72a5.37,5.37,0,0,0-4.66.31c-7.13,4.51-14.11,9.25-21.06,14-1.13.77-2.68,2.05-2.71,3.13-.22,8.69-.12,17.4-.12,27.13ZM49.4,70.42c6.87,4.62,13.39,9.08,20,13.35a3.89,3.89,0,0,0,3.42-.23c6.48-4.21,12.85-8.6,19.56-13.14-6.7-4.51-13-8.86-19.38-12.93a4.8,4.8,0,0,0-4.23,0C62.36,61.56,56.1,65.91,49.4,70.42ZM12.71,80.64,28,70.41,12.71,60.24Zm116.4-20.39L113.84,70.44l15.26,10.09Z" style="fill:none;stroke:#000;stroke-miterlimit:10"/></g></svg>