<svg id="Layer_1" data-name="Layer 1" xmlns="http://www.w3.org/2000/svg" viewBox="0 0 141.76 140.72"><defs><style>.cls-1,.cls-2,.cls-3,.cls-4{fill:none;stroke-width:2px;}.cls-1{stroke:#b3b3b3;}.cls-1,.cls-4{stroke-miterlimit:10;}.cls-2{stroke:#ddd;}.cls-2,.cls-3{stroke-linejoin:round;}.cls-3{stroke:#858585;}.cls-4{stroke:#515151;}</style></defs><title>portfolio-logo-set</title><g id="i82ZXI.tif"><path class="cls-1" d="M65.47,61c2.14-1.83,3.17-4.43,4.6-6.73,6.39-10.24,12.68-20.55,19-30.84,2.16-3.52,2.18-3.54,6-1.65L126.68,37.6c1.26.63,2.62,1.14,3.35,2.48-4.21,6.69-7,11.21-10.39,16.71-8.78,14.34-17.56,28.54-26.39,42.84-1.26,2.69-2.9,2.93-2.9,2.93C90.14,102.39,70.43,69,65.47,61Z"/><path class="cls-2" d="M90.35,102.56c1.56-.39,2.15-1.72,2.9-2.93q17.83-29,35.68-57.91c.35-.56.74-1.1,1.1-1.65q0,38.52,0,77c0,3.9-1.18,4.56-4.7,2.82Q107.84,111.27,90.35,102.56Z"/><path class="cls-3" d="M65.47,61Q76.81,79.37,88.12,97.76c.78,1.28,1.74,3,1.6,4.27L55.52,85c-3.09-1.54-3.37-1.49-3.37-1.49s.05-16.8.25-43.46Z"/><path class="cls-4" d="M51.81,120c-.88,1.43-2.06,1.06-3.21.48q-16.46-8.21-32.91-16.45c-2.06-1-2.49-2.84-2.48-5q.05-27,0-54.09c0-7,0-14,0-21,0-3.49.5-3.84,3.53-2.34q16.86,8.37,33.68,16.81c.75.37,1.59.66,2,1.53.35,10.22-.29,45.4-.29,46.32,0,10.2,0,20.41,0,30.61C52.08,118,52.35,119.07,51.81,120Z"/></g></svg>