<svg id="Layer_1" data-name="Layer 1" xmlns="http://www.w3.org/2000/svg" viewBox="0 0 1268.87 448.8"><defs><style>.cls-1,.cls-11,.cls-12,.cls-13,.cls-14,.cls-2,.cls-6,.cls-7,.cls-8,.cls-9{fill:none;}.cls-1,.cls-2,.cls-9{stroke:#231f20;}.cls-1,.cls-11,.cls-14,.cls-2,.cls-7,.cls-8,.cls-9{stroke-miterlimit:10;}.cls-1{stroke-width:4px;}.cls-2,.cls-6,.cls-8{stroke-width:2px;}.cls-3{fill:#231f20;}.cls-4{fill:#c2c2c1;}.cls-5{fill:#d43783;}.cls-6,.cls-7,.cls-8{stroke:#000;}.cls-12,.cls-13,.cls-6{stroke-linejoin:round;}.cls-10{font-size:8px;fill:#829496;font-family:FiraCode-Regular, Fira Code;}.cls-11{stroke:#b3b3b3;}.cls-12{stroke:#ddd;}.cls-13{stroke:#858585;}.cls-14{stroke:#515151;}</style></defs><title>portfolio-logo-set</title><rect class="cls-1" x="581.32" y="165.39" width="134" height="113.5" rx="10" ry="10"/><rect class="cls-2" x="333.82" y="162.39" width="119" height="102.07" rx="10" ry="10"/><line class="cls-2" x1="333.82" y1="185.09" x2="452.82" y2="185.09"/><path class="cls-3" d="M32.42,226.46v2.75l-12.16,7.58-1.44-2,11.3-7-11.3-6.94,1.31-2Z" transform="translate(576.32 -18.92)"/><path class="cls-3" d="M33.92,234.31h16v2.37h-16Z" transform="translate(576.32 -18.92)"/><rect class="cls-1" x="823.99" y="165.39" width="134" height="113.5" rx="10" ry="10"/><line class="cls-2" x1="823.99" y1="188.55" x2="958.41" y2="188.55"/><line class="cls-2" x1="581.12" y1="188.55" x2="715.53" y2="188.55"/><rect class="cls-4" x="829.99" y="214.85" width="72.25" height="35.63"/><rect class="cls-4" x="907.24" y="214.85" width="44.75" height="15.33"/><rect class="cls-4" x="829.99" y="194.51" width="22.38" height="15.33"/><rect class="cls-4" x="857.37" y="194.51" width="94.63" height="15.33"/><rect class="cls-4" x="907.24" y="235.12" width="44.75" height="15.33"/><rect class="cls-4" x="829.99" y="255.39" width="122" height="15.33"/><rect class="cls-5" x="842.49" y="48.39" width="50" height="5"/><rect class="cls-5" x="842.49" y="68.72" width="50" height="5"/><rect class="cls-5" x="850.49" y="89.05" width="50" height="5"/><rect class="cls-5" x="850.49" y="109.3" width="50" height="5"/><rect class="cls-5" x="850.49" y="129.55" width="50" height="5"/><rect class="cls-5" x="216.86" y="102.7" width="70.1" height="5" transform="translate(933.44 -165.64) rotate(90)"/><rect class="cls-5" x="302.74" y="123.36" width="70.1" height="5" transform="translate(1039.98 -230.85) rotate(90)"/><rect class="cls-5" x="266.61" y="123.36" width="70.1" height="5" transform="translate(1003.86 -194.73) rotate(90)"/><rect class="cls-5" x="342.16" y="106.23" width="73.51" height="5" transform="translate(1063.97 -289.11) rotate(90)"/><g id="gJjI1E.tif"><path class="cls-6" d="M93.32,345.75h5.46c1,.22,2.09.41,3.13.65a26.14,26.14,0,0,1,12.56,6.84,1.75,1.75,0,0,0,1.33.53c3.09-.88,6.19-1.74,9.2-2.85,2.24-.83,4.36-2,6.69-3.12a27.23,27.23,0,0,1-10.71,14A49.36,49.36,0,0,0,135.16,358c-.32.51-.46.75-.62,1a49.65,49.65,0,0,1-11.25,11.62,2.28,2.28,0,0,0-1,2.17,69.41,69.41,0,0,1-1.86,18.31c-3.76,15.89-11.52,29.46-23.81,40.28A69.27,69.27,0,0,1,59,448.23c-2,.27-4.08.5-6.13.75H44.44c-2.42-.26-4.85-.43-7.25-.81a74.71,74.71,0,0,1-24.6-8.33c-1.33-.73-2.61-1.53-3.91-2.31a59.76,59.76,0,0,0,20-2,51.44,51.44,0,0,0,18-9.11,25.91,25.91,0,0,1-15.06-5.24,25.4,25.4,0,0,1-9.09-12.73c2,.1,3.81.31,5.61.24s3.67-.4,5.5-.62A28.2,28.2,0,0,1,19,398.58,25.5,25.5,0,0,1,13.35,382a26.79,26.79,0,0,0,11.59,3.18c-5.67-4.15-9.3-9.31-10.74-15.87a25.75,25.75,0,0,1,2.89-18.84,74.38,74.38,0,0,0,24,19.32,72.62,72.62,0,0,0,29.37,7.85,63.74,63.74,0,0,1-.19-7.88c1-10.77,6.69-18.23,16.68-22.3A53.59,53.59,0,0,1,93.32,345.75Z" transform="translate(576.32 -18.92)"/></g><g id="gi95s1.tif"><path class="cls-7" d="M383.8,397.5c0-6.5-.4-13,.19-19.47.25-2.75,1.91-6.3,4.09-7.8,20.29-13.89,40.86-27.38,61.28-41.08,3.37-2.26,6.23-2.16,9.57.08q30.41,20.42,61,40.62c3.26,2.16,4.55,4.93,4.51,8.79q-.19,18.74,0,37.48a9.78,9.78,0,0,1-4.86,9.1q-30.16,19.9-60.12,40.09c-3.89,2.63-7,2.51-10.83-.07Q418.66,445,388.49,425.15a9.65,9.65,0,0,1-4.74-9.17C383.93,409.83,383.8,403.66,383.8,397.5ZM400.47,376c7,4.65,13.39,9,19.9,13.09a3.93,3.93,0,0,0,3.46-.19q11.44-7.44,22.66-15.21a4.58,4.58,0,0,0,1.77-3.17c.15-8.4.08-16.81.08-26.4Zm107.23,0-47.89-31.83c0,9.57-.13,17.85.13,26.12,0,1.42,1.47,3.2,2.76,4.1,6.91,4.84,13.92,9.54,21,14a5.36,5.36,0,0,0,4.67.29C494.73,384.82,500.84,380.58,507.7,376ZM400.48,418.86l47.86,31.86c0-9.6.07-18-.08-26.41a4.58,4.58,0,0,0-1.79-3.16q-11.22-7.77-22.66-15.21a3.94,3.94,0,0,0-3.47-.19C413.85,409.88,407.48,414.21,400.48,418.86Zm107.2,0c-6.86-4.58-13-8.83-19.28-12.72a5.37,5.37,0,0,0-4.66.31c-7.13,4.51-14.11,9.25-21.06,14-1.13.77-2.68,2.05-2.71,3.13-.22,8.69-.12,17.4-.12,27.13Zm-75.12-21.43c6.87,4.62,13.39,9.08,20,13.35a3.89,3.89,0,0,0,3.42-.23c6.48-4.21,12.85-8.6,19.56-13.14-6.7-4.51-13-8.86-19.38-12.93a4.8,4.8,0,0,0-4.23,0C445.53,388.57,439.27,392.91,432.56,397.43Zm-36.69,10.22,15.26-10.23-15.26-10.17Zm116.4-20.39L497,397.45l15.26,10.09Z" transform="translate(576.32 -18.92)"/></g><g id="_7JV8hd.tif" data-name="7JV8hd.tif"><path class="cls-8" d="M273.4,453.32c-2.65,0-3.78-.94-4.18-3.53a14.2,14.2,0,0,1-.15-2.13c0-7,0-13.91,0-20.86a19.41,19.41,0,0,0-3.33-11.13c-.47-.67-1-1.31-1.63-2.12,1.53-.28,2.92-.53,4.3-.8a55.6,55.6,0,0,0,14.07-4.27,27.84,27.84,0,0,0,13.76-14.54,42.33,42.33,0,0,0,3.49-21.72,29.49,29.49,0,0,0-4.79-13.79c-.45-.65-.8-1.38-1.27-2a6.68,6.68,0,0,1-1-6,27.19,27.19,0,0,0-1.22-15.91,2.35,2.35,0,0,0-2.5-1.6,22.63,22.63,0,0,0-10.44,2.91q-3.7,1.91-7.31,4a5.51,5.51,0,0,1-4.22.63,76.66,76.66,0,0,0-26.74-1.46c-2.83.34-5.64.92-8.43,1.5a5.2,5.2,0,0,1-4-.66,51.55,51.55,0,0,0-13.1-6.15,47.88,47.88,0,0,0-4.9-.91,2,2,0,0,0-2.36,1.51,29,29,0,0,0-.93,17.66,3.39,3.39,0,0,1-.69,3.32,29.53,29.53,0,0,0-6.48,15,48.25,48.25,0,0,0,.64,15.4,33.63,33.63,0,0,0,5.45,13.58,29.19,29.19,0,0,0,15.56,11.22c4,1.24,8.08,2,12.13,2.9.46.11.92.19,1.52.31a17.11,17.11,0,0,0-1.9,2.65c-1,2.08-1.7,4.25-2.61,6.35a3.11,3.11,0,0,1-1.21,1.63c-4.91,2.06-9.88,2.68-14.81.09a18.77,18.77,0,0,1-6.57-6.09c-1.75-2.5-3.5-5-6.2-6.66s-5.32-2.5-8.38-1.87c-.56.12-1.36.48-1.49.9a2.09,2.09,0,0,0,.66,1.62,17.31,17.31,0,0,0,2.66,2.17,20.08,20.08,0,0,1,6.66,7.78c1.43,2.78,2.53,5.73,4.76,8.06a16.37,16.37,0,0,0,11.06,5.17c3.71.24,7.45-.05,11.17-.11h1.2c0,.42.08.83.08,1.25,0,4.25-.15,8.5-.06,12.75.07,3.12-1.87,3.9-4,4-.24,0-.48,0-.72,0" transform="translate(576.32 -18.92)"/></g><g id="_7JV8hd.tif-2" data-name="7JV8hd.tif"><path class="cls-8" d="M-431.18,314.15h-47.48c-2.65,0-3.78-.94-4.18-3.53a14.2,14.2,0,0,1-.15-2.13c0-7,0-13.91,0-20.86a19.41,19.41,0,0,0-3.33-11.13c-.47-.67-1-1.31-1.63-2.12,1.53-.28,2.92-.53,4.3-.8a55.6,55.6,0,0,0,14.07-4.27,27.84,27.84,0,0,0,13.76-14.54A42.33,42.33,0,0,0-452.38,233a29.49,29.49,0,0,0-4.79-13.79c-.45-.65-.8-1.38-1.27-2a6.68,6.68,0,0,1-1-6,27.19,27.19,0,0,0-1.22-15.91,2.35,2.35,0,0,0-2.5-1.6,22.63,22.63,0,0,0-10.44,2.91q-3.7,1.91-7.31,4a5.51,5.51,0,0,1-4.22.63,76.66,76.66,0,0,0-26.74-1.46c-2.83.34-5.64.92-8.43,1.5a5.2,5.2,0,0,1-4-.66,51.55,51.55,0,0,0-13.1-6.15,47.88,47.88,0,0,0-4.9-.91,2,2,0,0,0-2.36,1.51,29,29,0,0,0-.93,17.66,3.39,3.39,0,0,1-.69,3.32,29.53,29.53,0,0,0-6.48,15,48.25,48.25,0,0,0,.64,15.4A33.63,33.63,0,0,0-546.66,260a29.19,29.19,0,0,0,15.56,11.22c4,1.24,8.08,2,12.13,2.9.46.11.92.19,1.52.31a17.11,17.11,0,0,0-1.9,2.65c-1,2.08-1.7,4.25-2.61,6.35a3.11,3.11,0,0,1-1.21,1.63c-4.91,2.06-9.88,2.68-14.81.09a18.77,18.77,0,0,1-6.57-6.09c-1.75-2.5-3.5-5-6.2-6.66s-5.32-2.5-8.38-1.87c-.56.12-1.36.48-1.49.9A2.09,2.09,0,0,0-560,273a17.31,17.31,0,0,0,2.66,2.17,20.08,20.08,0,0,1,6.66,7.78c1.43,2.78,2.53,5.73,4.76,8.06a16.37,16.37,0,0,0,11.06,5.17c3.71.24,7.45-.05,11.17-.11h1.2c0,.42.08.83.08,1.25,0,4.25-.15,8.5-.06,12.75.07,3.12-1.87,3.9-4,4-.24,0-.48,0-.72,0H-570.8c-3,0-4.52-1.5-4.52-4.53q0-68.19,0-136.37c0-3,1.51-4.53,4.52-4.53h135.18c3,0,4.5,1.51,4.5,4.55q0,69.8,0,139.59C-431.12,313.25-431.15,313.64-431.18,314.15Z" transform="translate(576.32 -18.92)"/></g><path class="cls-3" d="M36.37,58.86v2.48L25.43,68.16l-1.3-1.79L34.3,60.09,24.13,53.84,25.32,52Z" transform="translate(576.32 -18.92)"/><path class="cls-3" d="M37.73,65.92h14.4v2.13H37.73Z" transform="translate(576.32 -18.92)"/><rect class="cls-1" x="588.02" y="2" width="120.6" height="102.15" rx="10" ry="10"/><line class="cls-9" x1="587.84" y1="22.85" x2="708.81" y2="22.85"/><text class="cls-10" transform="translate(642.37 113.98)">designnutt.com</text><g id="i82ZXI.tif"><path class="cls-11" d="M651.61,391.67c1.33-1.14,2-2.77,2.88-4.21,4-6.4,7.93-12.84,11.88-19.27,1.35-2.2,1.36-2.21,3.72-1L689.87,377a4.22,4.22,0,0,1,2.1,1.55c-2.63,4.18-4.39,7-6.49,10.45-5.49,9-11,17.84-16.5,26.78-.79,1.68-1.81,1.83-1.81,1.83S654.71,396.69,651.61,391.67Z" transform="translate(576.32 -18.92)"/><path class="cls-12" d="M667.16,417.65c1-.24,1.35-1.08,1.81-1.83l22.3-36.2c.22-.35.46-.69.69-1q0,24.08,0,48.15c0,2.44-.74,2.85-2.94,1.76Z" transform="translate(576.32 -18.92)"/><path class="cls-13" d="M651.61,391.67q7.09,11.49,14.16,23a5.08,5.08,0,0,1,1,2.67L645.4,406.68a9,9,0,0,0-2.11-.93s0-10.5.16-27.16Z" transform="translate(576.32 -18.92)"/><path class="cls-14" d="M643.08,428.58c-.55.89-1.29.66-2,.3L620.5,418.6c-1.29-.64-1.55-1.77-1.55-3.11q0-16.9,0-33.81c0-4.37,0-8.73,0-13.1,0-2.18.31-2.4,2.21-1.46q10.54,5.23,21,10.51c.47.23,1,.41,1.22,1,.22,6.39-.18,28.37-.18,28.95,0,6.38,0,12.75,0,19.13A3.72,3.72,0,0,1,643.08,428.58Z" transform="translate(576.32 -18.92)"/></g></svg>