<svg id="Layer_1" data-name="Layer 1" xmlns="http://www.w3.org/2000/svg" viewBox="0 0 110.55 122.67"><title>portfolio-logo-set</title><g id="_7JV8hd.tif" data-name="7JV8hd.tif"><path d="M83,121.66c-2.65,0-3.78-.94-4.18-3.53a14.2,14.2,0,0,1-.15-2.13c0-7,0-13.91,0-20.86A19.41,19.41,0,0,0,75.29,84c-.47-.67-1-1.31-1.63-2.12,1.53-.28,2.92-.53,4.3-.8A55.6,55.6,0,0,0,92,76.82,27.84,27.84,0,0,0,105.8,62.28a42.33,42.33,0,0,0,3.49-21.72,29.49,29.49,0,0,0-4.79-13.79c-.45-.65-.8-1.38-1.27-2a6.68,6.68,0,0,1-1-6A27.19,27.19,0,0,0,101,2.79a2.35,2.35,0,0,0-2.5-1.6A22.63,22.63,0,0,0,88,4.11q-3.7,1.91-7.31,4a5.51,5.51,0,0,1-4.22.63A76.66,76.66,0,0,0,49.77,7.26c-2.83.34-5.64.92-8.43,1.5a5.2,5.2,0,0,1-4-.66A51.55,51.55,0,0,0,24.26,2,47.88,47.88,0,0,0,19.36,1,2,2,0,0,0,17,2.55a29,29,0,0,0-.93,17.66,3.39,3.39,0,0,1-.69,3.32,29.53,29.53,0,0,0-6.48,15,48.25,48.25,0,0,0,.64,15.4A33.63,33.63,0,0,0,15,67.49,29.19,29.19,0,0,0,30.55,78.72c4,1.24,8.08,2,12.13,2.9.46.11.92.19,1.52.31a17.11,17.11,0,0,0-1.9,2.65c-1,2.08-1.7,4.25-2.61,6.35a3.11,3.11,0,0,1-1.21,1.63c-4.91,2.06-9.88,2.68-14.81.09a18.77,18.77,0,0,1-6.57-6.09c-1.75-2.5-3.5-5-6.2-6.66S5.57,77.39,2.52,78c-.56.12-1.36.48-1.49.9a2.09,2.09,0,0,0,.66,1.62,17.31,17.31,0,0,0,2.66,2.17A20.08,20.08,0,0,1,11,90.49c1.43,2.78,2.53,5.73,4.76,8.06a16.37,16.37,0,0,0,11.06,5.17c3.71.24,7.45-.05,11.17-.11h1.2c0,.42.08.83.08,1.25,0,4.25-.15,8.5-.06,12.75.07,3.12-1.87,3.9-4,4-.24,0-.48,0-.72,0" style="fill:none;stroke:#000;stroke-miterlimit:10;stroke-width:2px"/></g></svg>