<svg id="Layer_1" data-name="Layer 1" xmlns="http://www.w3.org/2000/svg" viewBox="0 0 140 140"><title>portfolio-logo-set</title><g id="gJjI1E.tif"><path d="M91.32,14.1h5.46c1,.22,2.09.41,3.13.65a26.14,26.14,0,0,1,12.56,6.84,1.75,1.75,0,0,0,1.33.53c3.09-.88,6.19-1.74,9.2-2.85,2.24-.83,4.36-2,6.69-3.12a27.23,27.23,0,0,1-10.71,14,49.36,49.36,0,0,0,14.18-3.82c-.32.51-.46.75-.62,1A49.65,49.65,0,0,1,121.3,38.94a2.28,2.28,0,0,0-1,2.17,69.41,69.41,0,0,1-1.86,18.31c-3.76,15.89-11.52,29.46-23.81,40.28A69.27,69.27,0,0,1,57,116.58c-2,.27-4.08.5-6.13.75H42.44c-2.42-.26-4.85-.43-7.25-.81a74.71,74.71,0,0,1-24.6-8.33c-1.33-.73-2.61-1.53-3.91-2.31a59.76,59.76,0,0,0,20-2,51.44,51.44,0,0,0,18-9.11,25.91,25.91,0,0,1-15.06-5.24,25.4,25.4,0,0,1-9.09-12.73c2,.1,3.81.31,5.61.24s3.67-.4,5.5-.62A28.2,28.2,0,0,1,17,66.93a25.5,25.5,0,0,1-5.64-16.54,26.79,26.79,0,0,0,11.59,3.18c-5.67-4.15-9.3-9.31-10.74-15.87a25.75,25.75,0,0,1,2.89-18.84,74.38,74.38,0,0,0,24,19.32A72.62,72.62,0,0,0,68.45,46a63.74,63.74,0,0,1-.19-7.88c1-10.77,6.69-18.23,16.68-22.3A53.59,53.59,0,0,1,91.32,14.1Z" style="fill:none;stroke:#000;stroke-miterlimit:10;stroke-width:2px"/></g></svg>